<svg width="106" height="89" viewBox="0 0 106 89" fill="none" xmlns="http://www.w3.org/2000/svg">
<g clip-path="url(#clip0_3_523)">
<path d="M53.1243 0.5C24.703 0.5 2.4364 36.58 0.329651 67.0536C9.24856 82.4982 30.7562 88.3038 53.1251 88.3038C75.4923 88.3038 97.0012 82.4982 105.916 67.0532C103.808 36.58 81.5447 0.5 53.1247 0.5" fill="#B6DEFF"/>
<path d="M98.4888 59.7947C98.4888 59.7947 92.2116 46.2534 85.8313 38.3532C79.4464 30.4498 71.6492 21.8439 67.0391 21.8439C62.4314 21.8439 49.5507 44.5992 43.6416 44.5992C37.7313 44.5992 34.6598 34.2837 27.3934 34.2837C20.1241 34.2837 8.57508 59.1588 8.57508 59.1588L7.7925 63.3758C7.7925 63.3758 11.8048 81.1249 53.7799 81.1249C95.7568 81.1249 99.1115 63.6671 99.1115 63.6671L98.4892 59.7942" fill="#66CC66"/>
<path d="M44.2996 54.3101C37.7806 54.3101 34.4387 47.8923 32.6268 43.9307C30.9974 40.3619 30.7154 34.7275 26.0924 34.5696C26.5467 34.3899 26.9839 34.2837 27.3938 34.2837C34.6602 34.2837 37.7317 44.5992 43.6421 44.5992C49.5511 44.5992 62.4318 21.8435 67.0395 21.8435C67.9078 21.8435 68.8858 22.1492 69.947 22.6929C69.162 22.5896 68.1554 22.6615 67.3798 23.4378C65.8905 24.9243 52.3701 54.3101 44.2996 54.3101Z" fill="#17AD49"/>
</g>
<defs>
<clipPath id="clip0_3_523">
<rect width="106" height="88" fill="white" transform="translate(0 0.5)"/>
</clipPath>
</defs>
</svg>
